<svg width="24" height="24" viewBox="0 0 24 24" fill="none" xmlns="http://www.w3.org/2000/svg">
<path d="M19.7071 4.2929L15.7071 0.292866C15.7069 0.292678 15.7068 0.292584 15.7066 0.292397C15.6835 0.269288 15.6592 0.247397 15.6339 0.226631C15.6223 0.217116 15.6101 0.208866 15.5982 0.199959C15.584 0.189319 15.5701 0.178303 15.5553 0.168413C15.541 0.158897 15.5262 0.150647 15.5116 0.141928C15.4982 0.133913 15.4851 0.125522 15.4714 0.118116C15.4564 0.110147 15.4412 0.103397 15.4259 0.0962251C15.4115 0.0894282 15.3974 0.0822563 15.3827 0.0761157C15.3679 0.070022 15.3528 0.0650532 15.3378 0.0597095C15.322 0.0540376 15.3064 0.0479907 15.2903 0.0431157C15.2753 0.0385688 15.26 0.0352407 15.2449 0.0314438C15.2284 0.027272 15.2122 0.0226782 15.1954 0.0193501C15.1779 0.0158813 15.1602 0.013772 15.1425 0.0112407C15.1279 0.00917822 15.1136 0.00636572 15.0987 0.0049126C15.0331 -0.00155615 14.967 -0.00155615 14.9014 0.0049126C14.8866 0.00636572 14.8722 0.00913135 14.8576 0.0112407C14.8399 0.013772 14.8222 0.0158345 14.8047 0.0193501C14.7879 0.0226782 14.7717 0.027272 14.7552 0.0314438C14.74 0.0352407 14.7248 0.0385688 14.7098 0.0431157C14.6937 0.0479907 14.678 0.0540376 14.6623 0.0597095C14.6473 0.0651001 14.6322 0.070022 14.6174 0.0761157C14.6027 0.0822095 14.5886 0.0894282 14.5742 0.0962251C14.559 0.103397 14.5437 0.110147 14.5287 0.118116C14.515 0.125522 14.5019 0.133913 14.4885 0.141928C14.4739 0.150647 14.4591 0.158897 14.4448 0.168413C14.43 0.178303 14.4161 0.189319 14.4019 0.199959C14.39 0.208866 14.3778 0.217116 14.3662 0.226631C14.3409 0.247397 14.3166 0.269288 14.2935 0.292397C14.2933 0.292584 14.2931 0.292678 14.293 0.292866L10.293 4.29285C9.90246 4.68337 9.90246 5.31655 10.293 5.70707C10.6835 6.09758 11.3167 6.09758 11.7072 5.70707L14.0001 3.41418V15C14.0001 15.5523 14.4478 16 15.0001 16C15.5524 16 16.0001 15.5523 16.0001 15V3.41422L18.2929 5.70712C18.6835 6.09763 19.3166 6.09763 19.7072 5.70712C20.0976 5.31655 20.0976 4.68341 19.7071 4.2929Z" fill="black"/>
<path d="M12.2929 18.2929L9.99999 20.5857V8.99998C9.99999 8.4477 9.55229 8 9.00001 8C8.44773 8 8.00003 8.4477 8.00003 8.99998V20.5857L5.70714 18.2929C5.31662 17.9023 4.68343 17.9023 4.29292 18.2929C3.9024 18.6834 3.9024 19.3166 4.29292 19.7071L8.2929 23.7071C8.29309 23.7072 8.29328 23.7074 8.29346 23.7076C8.31657 23.7306 8.3409 23.7525 8.36617 23.7733C8.37775 23.7828 8.38998 23.7911 8.40189 23.8C8.41609 23.8107 8.43001 23.8217 8.44478 23.8316C8.45903 23.8411 8.47379 23.8493 8.48842 23.858C8.50182 23.8661 8.5149 23.8745 8.52868 23.8818C8.54359 23.8898 8.55892 23.8965 8.57415 23.9037C8.58849 23.9105 8.60265 23.9177 8.61737 23.9238C8.63214 23.9299 8.64723 23.9348 8.66223 23.9402C8.67803 23.9458 8.69359 23.9519 8.70971 23.9568C8.72471 23.9613 8.73995 23.9646 8.75514 23.9684C8.77159 23.9726 8.78785 23.9772 8.80464 23.9805C8.82221 23.984 8.83993 23.9861 8.8576 23.9886C8.87218 23.9907 8.88657 23.9935 8.90134 23.9949C8.96696 24.0014 9.0331 24.0014 9.09873 23.9949C9.1135 23.9935 9.12784 23.9907 9.14246 23.9886C9.16014 23.9861 9.1779 23.984 9.19543 23.9805C9.21221 23.9772 9.22843 23.9726 9.24489 23.9684C9.26007 23.9646 9.27531 23.9613 9.29031 23.9567C9.30643 23.9518 9.32204 23.9458 9.33779 23.9401C9.35279 23.9347 9.36789 23.9298 9.38265 23.9237C9.39737 23.9176 9.41148 23.9105 9.42582 23.9037C9.44106 23.8965 9.45643 23.8897 9.47134 23.8817C9.48507 23.8744 9.49815 23.866 9.51151 23.858C9.52614 23.8493 9.54095 23.841 9.5552 23.8315C9.56996 23.8216 9.58384 23.8106 9.598 23.8C9.60995 23.7911 9.62218 23.7828 9.63381 23.7732C9.65889 23.7527 9.68303 23.7309 9.706 23.708C9.70637 23.7077 9.70675 23.7073 9.70707 23.707L13.7071 19.707C14.0976 19.3165 14.0976 18.6833 13.7071 18.2928C13.3165 17.9023 12.6834 17.9023 12.2929 18.2929Z" fill="black"/>
</svg>
