<svg width="24" height="24" viewBox="0 0 24 24" fill="none" xmlns="http://www.w3.org/2000/svg">
<g clip-path="url(#clip0_24_1286)">
<path d="M5.97069 0.749634C3.09126 0.749634 0.766391 3.08535 0.761707 5.9696L0.750007 13.184C0.74547 15.9409 2.88223 18.1716 5.58326 18.3673V22.8746C5.58314 22.9489 5.6051 23.0216 5.64634 23.0834C5.68759 23.1452 5.74626 23.1934 5.81492 23.2218C5.88358 23.2502 5.95913 23.2575 6.03198 23.2429C6.10484 23.2283 6.17171 23.1924 6.22413 23.1398L10.9475 18.4047H18.0418C20.9212 18.4047 23.25 16.0695 23.25 13.1847V5.97034C23.25 3.08651 20.9329 0.749634 18.0535 0.749634H5.97069ZM8.25072 8.45325C8.86759 8.45325 9.37499 8.96143 9.37499 9.57825C9.37498 10.1951 8.86758 10.7032 8.25072 10.7032C7.63386 10.7032 7.12573 10.1951 7.12572 9.57825C7.12572 8.96143 7.63386 8.45325 8.25072 8.45325ZM12 8.45325C12.6169 8.45325 13.125 8.96143 13.125 9.57825C13.125 10.1951 12.6168 10.7032 12 10.7032C11.3831 10.7032 10.875 10.1951 10.875 9.57825C10.875 8.96143 11.3831 8.45325 12 8.45325ZM15.7507 8.45325C16.3676 8.45325 16.8757 8.96143 16.8757 9.57825C16.8757 10.1951 16.3676 10.7032 15.7507 10.7032C15.1339 10.7032 14.625 10.1951 14.625 9.57825C14.625 8.96143 15.1339 8.45325 15.7507 8.45325Z" fill="#3B80EB"/>
</g>
<defs>
<clipPath id="clip0_24_1286">
<rect width="24" height="24" fill="white"/>
</clipPath>
</defs>
</svg>
