<svg width="28" height="28" viewBox="0 0 28 28" fill="none" xmlns="http://www.w3.org/2000/svg">
<g id="search 1">
<g id="layer1">
<path id="circle2017" d="M12.7627 2.25317C6.97757 2.25317 2.26501 6.96572 2.26501 12.7509C2.26501 18.5361 6.97757 23.2578 12.7627 23.2578C15.2338 23.2578 17.5063 22.3918 19.3025 20.954L23.6752 25.3245C23.8958 25.536 24.1906 25.6527 24.4962 25.6496C24.8019 25.6464 25.0942 25.5238 25.3105 25.3078C25.5268 25.0918 25.6499 24.7997 25.6534 24.4941C25.657 24.1884 25.5407 23.8935 25.3295 23.6725L20.9567 19.2998C22.3957 17.5009 23.2627 15.2248 23.2627 12.7509C23.2627 6.96572 18.5479 2.25317 12.7627 2.25317ZM12.7627 4.58654C17.2869 4.58654 20.9271 8.22677 20.9271 12.7509C20.9271 17.2751 17.2869 20.9244 12.7627 20.9244C8.23859 20.9244 4.59835 17.2751 4.59835 12.7509C4.59835 8.22677 8.23859 4.58654 12.7627 4.58654Z" fill="white"/>
</g>
</g>
</svg>
