<svg width="20" height="20" viewBox="0 0 20 20" fill="none" xmlns="http://www.w3.org/2000/svg">
<path d="M15.8064 7.52276C15.8071 7.63243 15.7861 7.74115 15.7446 7.84268C15.7031 7.94421 15.642 8.03656 15.5648 8.11442L10.5648 13.1144C10.4086 13.2696 10.1974 13.3568 9.97727 13.3568C9.75712 13.3568 9.54591 13.2696 9.38977 13.1144L4.38977 8.11442C4.25325 7.95501 4.18191 7.74994 4.19001 7.54021C4.19811 7.33048 4.28506 7.13153 4.43347 6.98312C4.58188 6.83471 4.78083 6.74776 4.99056 6.73966C5.20029 6.73156 5.40535 6.8029 5.56477 6.93942L9.97311 11.3478L14.3814 6.93942C14.4975 6.82241 14.6457 6.74243 14.8072 6.70961C14.9687 6.67679 15.1363 6.6926 15.2888 6.75503C15.4413 6.81747 15.5719 6.92374 15.6641 7.06039C15.7562 7.19704 15.8057 7.35795 15.8064 7.52276Z" fill="#333333"/>
</svg>
