<svg width="289" height="70" viewBox="0 0 289 70" fill="none" xmlns="http://www.w3.org/2000/svg">
<g clip-path="url(#clip0_104_77)">
<path d="M137.515 28.8022C137.424 29.102 137.313 29.3951 137.183 29.6796C137.054 29.955 136.87 30.2008 136.642 30.4016C136.373 30.6288 136.061 30.7989 135.725 30.9014C135.247 31.0381 134.752 31.1017 134.255 31.0902C133.762 31.1026 133.271 31.039 132.797 30.9014C132.46 30.8015 132.147 30.6312 131.88 30.4016C131.648 30.2019 131.46 29.9561 131.328 29.6796C131.202 29.3931 131.091 29.1003 130.996 28.8022L128.389 20.5943C128.341 20.4471 128.286 20.3025 128.223 20.1611C128.223 20.05 128.112 19.9834 128.046 19.9834C127.98 19.9834 127.869 20.0612 127.869 20.2055C127.869 20.3499 127.869 20.461 127.869 20.5387L128.035 30.8903H122.511V16.6847C122.472 16.0615 122.661 15.4455 123.041 14.952C123.377 14.5648 123.796 14.2608 124.268 14.0635C124.718 13.8962 125.191 13.7988 125.671 13.7747C126.124 13.7747 126.466 13.7747 126.698 13.7747C127.067 13.7775 127.436 13.7998 127.803 13.8414C128.229 13.8909 128.643 14.011 129.029 14.1968C129.446 14.4025 129.821 14.6851 130.134 15.0298C130.513 15.4879 130.798 16.0162 130.974 16.5847L133.78 24.7704C133.78 24.7704 133.78 24.8815 133.858 24.9704C133.891 25.055 133.932 25.1367 133.979 25.2147C134.019 25.2998 134.071 25.3784 134.134 25.4479C134.151 25.4743 134.174 25.4968 134.201 25.514C134.227 25.5312 134.257 25.5427 134.288 25.5479C134.288 25.5479 134.388 25.5479 134.443 25.4479C134.506 25.3761 134.562 25.2979 134.609 25.2147L134.73 24.9704C134.73 24.8815 134.73 24.8149 134.797 24.7704L137.526 16.507C137.688 15.9328 137.975 15.4019 138.365 14.952C138.679 14.6073 139.053 14.3248 139.47 14.119C139.851 13.9407 140.257 13.8245 140.674 13.7747C141.063 13.7313 141.454 13.7091 141.846 13.7081C142.616 13.6778 143.387 13.7831 144.122 14.0191C144.588 14.178 145.012 14.4442 145.359 14.7965C145.641 15.0589 145.841 15.3987 145.933 15.7739C146.004 16.0725 146.041 16.3779 146.044 16.6847V30.8903H140.52L140.708 20.5387C140.725 20.3863 140.698 20.232 140.63 20.0945C140.63 20.0167 140.542 19.9834 140.487 19.9834C140.431 19.9834 140.398 19.9834 140.343 20.1167C140.27 20.2714 140.207 20.431 140.155 20.5943L137.515 28.8022Z" fill="#282E3D"/>
<path d="M159.412 18.0175C160.089 17.9922 160.764 18.1134 161.39 18.3729C161.83 18.5544 162.235 18.814 162.583 19.1393C162.834 19.3917 163.046 19.6799 163.213 19.9945C163.365 20.2979 163.49 20.6137 163.589 20.9386C163.676 21.2505 163.731 21.5706 163.754 21.8938C163.754 22.2048 163.754 22.4935 163.754 22.749V28.1469C163.753 28.5009 163.72 28.8541 163.655 29.202C163.589 29.5869 163.403 29.9408 163.125 30.2127C162.856 30.5206 162.488 30.7247 162.086 30.7903C161.721 30.8543 161.352 30.8877 160.981 30.8903H153.446C153.039 30.8901 152.633 30.8567 152.231 30.7903C151.81 30.7224 151.423 30.5198 151.126 30.2127C150.88 29.9884 150.68 29.7165 150.541 29.4131C150.4 29.1045 150.296 28.7801 150.231 28.4468C150.164 28.125 150.123 27.798 150.11 27.4694C150.11 27.1473 150.11 26.8474 150.11 26.5919C150.11 26.3365 150.11 26.0255 150.11 25.7256C150.133 25.4413 150.177 25.1592 150.242 24.8815C150.318 24.5911 150.429 24.3113 150.574 24.0485C150.724 23.7839 150.927 23.5533 151.17 23.371C151.489 23.1129 151.87 22.9443 152.275 22.8823C152.642 22.8402 153.011 22.8179 153.38 22.8156H158.982V22.6157C158.991 22.4826 158.991 22.349 158.982 22.2159C158.955 22.0528 158.886 21.8996 158.783 21.7716C158.619 21.5411 158.374 21.3822 158.098 21.3273C157.842 21.284 157.583 21.2618 157.324 21.2607H150.927V18.0175H159.412ZM155.689 25.7922C155.583 25.7795 155.475 25.7795 155.369 25.7922C155.228 25.8117 155.097 25.8737 154.993 25.97C154.917 26.0461 154.863 26.1423 154.838 26.2476C154.827 26.3584 154.827 26.4701 154.838 26.5808C154.829 26.6768 154.829 26.7736 154.838 26.8696C154.863 26.9716 154.917 27.0642 154.993 27.1362C155.076 27.2173 155.179 27.2749 155.291 27.3028C155.409 27.318 155.528 27.318 155.645 27.3028H158.087C158.215 27.3192 158.345 27.3192 158.473 27.3028C158.589 27.2858 158.7 27.24 158.794 27.1695C158.895 27.103 158.966 26.9993 158.993 26.8807C159.004 26.7662 159.004 26.6509 158.993 26.5364V25.7367L155.689 25.7922Z" fill="#282E3D"/>
<path d="M167.654 23.4376C167.654 23.1266 167.654 22.7934 167.654 22.4269C167.686 22.0512 167.752 21.6793 167.853 21.3162C167.955 20.926 168.112 20.5521 168.317 20.2056C168.533 19.8323 168.814 19.5012 169.146 19.2282C169.479 18.949 169.851 18.7208 170.251 18.5507C170.692 18.3975 171.147 18.2859 171.61 18.2174C172.015 18.1438 172.425 18.0956 172.836 18.0731H173.941H177.079V21.4051H175.432C174.99 21.4038 174.548 21.456 174.118 21.5606C173.668 21.6705 173.275 21.9434 173.013 22.327C172.74 22.6836 172.561 23.1039 172.494 23.5487C172.421 23.9557 172.384 24.3682 172.383 24.7816V30.9236H167.654V23.4376Z" fill="#282E3D"/>
<path d="M180.183 30.8903V13.8858H184.923V30.8903H180.183ZM189.828 30.8903L186.348 26.281C186.051 25.9199 185.832 25.4998 185.707 25.0481C185.646 24.7742 185.609 24.4955 185.597 24.2151C185.583 23.8314 185.663 23.4501 185.829 23.1044C185.994 22.7991 186.175 22.5025 186.37 22.2159L189.298 18.0397H194.425L190.536 23.16C190.433 23.303 190.351 23.4601 190.292 23.6265C190.232 23.7748 190.198 23.9328 190.193 24.0929C190.197 24.2938 190.246 24.4912 190.337 24.6705C190.431 24.8777 190.546 25.0749 190.679 25.2591L195.098 30.9125L189.828 30.8903Z" fill="#282E3D"/>
<path d="M202.865 30.8903C202.379 30.8903 201.926 30.8903 201.495 30.8903C201.078 30.8783 200.662 30.8187 200.258 30.7126C199.864 30.6101 199.491 30.4411 199.153 30.2128C198.801 29.9485 198.504 29.6162 198.28 29.2354C197.981 28.6872 197.8 28.0816 197.75 27.4583C197.661 26.517 197.62 25.5717 197.628 24.6261V22.9268C197.623 22.4255 197.652 21.9244 197.717 21.4273C197.767 20.9914 197.867 20.5627 198.015 20.1501C198.157 19.7694 198.379 19.4245 198.667 19.1393C198.973 18.8143 199.352 18.5669 199.772 18.4174C200.247 18.2408 200.74 18.1143 201.241 18.0398C201.798 17.9562 202.358 17.908 202.921 17.8954H204.722C206.025 17.8954 207.108 17.8954 207.959 18.0176C208.703 18.0574 209.419 18.3205 210.014 18.7728C210.323 19.01 210.576 19.3136 210.754 19.6614C210.93 20.0166 211.071 20.3887 211.174 20.772C211.271 21.1577 211.33 21.552 211.351 21.9494C211.351 22.3492 211.351 22.7268 211.351 23.06C211.346 23.488 211.309 23.915 211.24 24.3373C211.168 24.779 210.931 25.1763 210.577 25.448C210.405 25.6097 210.19 25.7178 209.958 25.759C209.747 25.795 209.532 25.8135 209.318 25.8145H202.335C202.302 25.9982 202.302 26.1862 202.335 26.3699C202.368 26.5411 202.428 26.706 202.512 26.8586C202.609 27.0148 202.742 27.1456 202.9 27.2402C203.057 27.3348 203.235 27.3906 203.418 27.4028C203.825 27.4478 204.234 27.4701 204.644 27.4694H210.853V30.9125L202.865 30.8903ZM205.915 22.7824C206.246 22.7824 206.467 22.6935 206.556 22.538C206.635 22.4031 206.681 22.2505 206.688 22.0937C206.687 21.9086 206.624 21.729 206.511 21.5828C206.33 21.3832 206.083 21.2568 205.815 21.2274C205.627 21.2274 205.395 21.1719 205.141 21.1497H204.556H203.661C203.403 21.1573 203.151 21.2217 202.921 21.3385C202.806 21.3924 202.705 21.4712 202.625 21.5691C202.545 21.6671 202.487 21.7818 202.457 21.9049C202.405 22.1914 202.405 22.4848 202.457 22.7713L205.915 22.7824Z" fill="#282E3D"/>
<path d="M221.626 30.8903H220.786C220.077 30.8647 219.375 30.7452 218.698 30.5349C218.324 30.427 217.973 30.2541 217.659 30.024C217.139 29.6707 216.723 29.1835 216.455 28.6134C216.185 28.0717 216.041 27.4754 216.035 26.8696V21.3162H214.223V17.9842H216.035V13.8858H220.775V18.0175H224.377V21.3496H220.731V24.2929C220.729 24.7631 220.777 25.2322 220.874 25.6923C220.971 26.1459 221.207 26.5576 221.548 26.8696C221.855 27.1527 222.24 27.3348 222.653 27.3916C222.993 27.446 223.336 27.4757 223.681 27.4805H224.377V30.9236L221.626 30.8903Z" fill="#282E3D"/>
<path d="M138.973 51.9599C139.003 52.418 138.895 52.8747 138.664 53.2705C138.521 53.5116 138.346 53.7321 138.144 53.9258C137.629 54.3326 136.987 54.5413 136.332 54.5144H128.333C127.584 54.4999 126.84 54.3803 126.124 54.159C125.376 53.945 124.685 53.5655 124.102 53.0483C123.636 52.6425 123.26 52.1431 122.997 51.5822C122.729 51.0069 122.525 50.4034 122.389 49.7829C122.257 49.1569 122.168 48.5222 122.124 47.8837C122.124 47.2395 122.124 46.6397 122.124 46.0733C122.124 45.5068 122.124 44.696 122.191 43.9963C122.235 43.3031 122.343 42.6153 122.511 41.9416C122.66 41.2953 122.902 40.6742 123.229 40.0978C123.557 39.5258 124.001 39.0299 124.533 38.6428C124.91 38.3478 125.337 38.1222 125.792 37.9764C126.209 37.8259 126.638 37.7107 127.074 37.6321C127.438 37.5585 127.808 37.514 128.179 37.4988C128.499 37.4988 128.709 37.4988 128.82 37.4988H138.686V41.5417H131.283C130.698 41.4733 130.106 41.5689 129.572 41.8178C129.038 42.0668 128.582 42.4594 128.256 42.9523C127.965 43.4106 127.787 43.9323 127.737 44.4739C127.737 45.0292 127.648 45.5846 127.648 46.0066C127.652 46.5187 127.682 47.0303 127.737 47.5394C127.786 48.0984 127.964 48.6384 128.256 49.1165C128.513 49.5434 128.901 49.8747 129.361 50.0606C129.78 50.2089 130.221 50.2841 130.665 50.2827H132.311H132.786C132.955 50.2579 133.111 50.1756 133.228 50.0495C133.357 49.9289 133.442 49.7688 133.471 49.5941C133.487 49.4168 133.487 49.2383 133.471 49.061V45.529H138.995L138.973 51.9599Z" fill="#933FA1"/>
<path d="M156.032 37.5099V47.2728C156.037 47.6902 156.078 48.1063 156.153 48.5168C156.256 48.9629 156.515 49.357 156.882 49.6274C157.158 49.8384 157.474 49.9896 157.81 50.0717C158.17 50.1745 158.542 50.2268 158.915 50.2272C159.289 50.2261 159.661 50.1738 160.02 50.0717C160.356 49.9873 160.671 49.8362 160.948 49.6274C161.145 49.4719 161.31 49.2795 161.434 49.061C161.54 48.8552 161.625 48.6394 161.688 48.4168C161.745 48.2105 161.775 47.9977 161.777 47.7837C161.777 47.5838 161.777 47.395 161.777 47.2173V37.5099H167.246V47.706C167.246 48.1474 167.224 48.5885 167.179 49.0277C167.142 49.4725 167.057 49.9119 166.925 50.3383C166.794 50.7835 166.613 51.2121 166.384 51.6156C166.136 52.0471 165.831 52.4431 165.478 52.7929C165.063 53.2143 164.582 53.5634 164.053 53.8258C163.529 54.0723 162.981 54.2622 162.418 54.3923C161.84 54.5232 161.252 54.6086 160.661 54.6477C160.053 54.6477 159.457 54.7032 158.86 54.7032C158.263 54.7032 157.645 54.7032 157.048 54.6477C156.457 54.6078 155.87 54.5224 155.291 54.3923C154.728 54.2622 154.18 54.0723 153.656 53.8258C153.131 53.5579 152.65 53.2094 152.231 52.7929C151.927 52.433 151.668 52.0377 151.458 51.6156C151.233 51.2099 151.052 50.7818 150.916 50.3383C150.79 49.9106 150.705 49.4717 150.662 49.0277C150.64 48.5874 150.64 48.1463 150.662 47.706V37.5099H156.032Z" fill="#933FA1"/>
<path d="M179.421 40.7642C179.423 40.344 179.457 39.9245 179.52 39.5092C179.583 39.0701 179.776 38.66 180.073 38.3319C180.366 38.0002 180.75 37.7643 181.178 37.6543C181.54 37.5668 181.91 37.5184 182.282 37.5099H191.486C191.751 37.5099 192.06 37.5099 192.414 37.5099C192.788 37.5257 193.158 37.5854 193.519 37.6877C193.908 37.8014 194.28 37.9696 194.623 38.1875C195.001 38.4341 195.324 38.7553 195.574 39.1315C195.946 39.696 196.188 40.3375 196.281 41.0086C196.389 41.6733 196.444 42.3455 196.446 43.0189C196.446 43.2188 196.446 43.4854 196.446 43.8186C196.442 44.19 196.416 44.5608 196.369 44.9293C196.314 45.318 196.259 45.7179 196.17 46.1177C196.099 46.4985 195.988 46.8708 195.839 47.2284C195.582 47.8984 195.117 48.4671 194.513 48.85C193.96 49.1743 193.33 49.3431 192.69 49.3387H191.972V49.4386L196.756 54.5144H190.127L186.812 50.0717C186.536 49.6941 186.271 49.3276 186.028 48.961C185.783 48.6139 185.651 48.1984 185.652 47.7726V47.4061C185.649 47.1367 185.709 46.8702 185.828 46.6288C185.947 46.3874 186.122 46.178 186.337 46.0177C186.847 45.6479 187.466 45.4603 188.094 45.4846H188.967C189.234 45.4829 189.5 45.4569 189.762 45.4069C190.046 45.3544 190.301 45.2006 190.48 44.9737C190.619 44.7731 190.717 44.5465 190.768 44.3073C190.818 44.0663 190.844 43.8206 190.845 43.5743C190.864 43.2265 190.812 42.8786 190.69 42.5524C190.622 42.4022 190.537 42.2606 190.436 42.1304C190.248 41.9192 189.988 41.7881 189.707 41.7638C189.442 41.7476 189.176 41.7476 188.911 41.7638H185.895C185.745 41.7463 185.593 41.7463 185.442 41.7638C185.291 41.798 185.153 41.8751 185.045 41.986C184.889 42.1101 184.787 42.2887 184.757 42.4858C184.746 42.6781 184.746 42.871 184.757 43.0633V54.5033H179.233L179.421 40.7642Z" fill="#933FA1"/>
<path d="M213.626 37.5099V47.2728C213.627 47.6904 213.667 48.1071 213.748 48.5168C213.851 48.9601 214.105 49.3532 214.466 49.6274C214.743 49.8362 215.058 49.9873 215.394 50.0717C215.754 50.1738 216.125 50.2261 216.499 50.2272C216.873 50.2268 217.244 50.1745 217.604 50.0717C217.94 49.9873 218.255 49.8362 218.532 49.6274C218.732 49.475 218.897 49.282 219.018 49.061C219.128 48.8573 219.213 48.641 219.272 48.4168C219.327 48.2097 219.36 47.9976 219.372 47.7837C219.372 47.5838 219.372 47.395 219.372 47.2173V37.5099H224.829V47.706C224.829 48.1502 224.829 48.5834 224.774 49.0277C224.726 49.4709 224.641 49.9093 224.52 50.3383C224.384 50.7818 224.203 51.2099 223.979 51.6156C223.724 52.0424 223.42 52.4376 223.073 52.7929C222.654 53.2094 222.173 53.5579 221.648 53.8258C221.124 54.0723 220.576 54.2622 220.012 54.3923C219.431 54.5232 218.84 54.6086 218.245 54.6477C217.648 54.6477 217.04 54.7032 216.444 54.7032C215.847 54.7032 215.228 54.7032 214.632 54.6477C214.044 54.6086 213.461 54.5232 212.886 54.3923C212.323 54.2622 211.775 54.0723 211.251 53.8258C210.722 53.5634 210.241 53.2143 209.826 52.7929C209.473 52.4431 209.168 52.0471 208.92 51.6156C208.691 51.2121 208.51 50.7835 208.379 50.3383C208.247 49.9119 208.162 49.4725 208.124 49.0277C208.08 48.5885 208.058 48.1474 208.058 47.706V37.5099H213.626Z" fill="#933FA1"/>
<path d="M93.454 63C104.974 63 114.313 62.4928 114.313 61.8671C114.313 61.2414 104.974 60.7342 93.454 60.7342C81.9337 60.7342 72.5947 61.2414 72.5947 61.8671C72.5947 62.4928 81.9337 63 93.454 63Z" fill="url(#paint0_radial_104_77)"/>
<path d="M64.6398 41.3307C64.7136 41.3962 64.7953 41.4521 64.8829 41.4973C65.9684 41.9127 67.1248 42.109 68.2858 42.0748C68.3954 42.0799 68.5036 42.1024 68.6062 42.1415C69.6981 42.628 70.9017 42.8047 72.0864 42.6524C72.6727 42.5442 73.2297 42.3134 73.7216 41.9749C73.8368 41.8779 73.973 41.8094 74.1193 41.775C76.2269 41.1854 78.3888 40.8132 80.5715 40.6643H80.8256C81.1789 40.6421 81.5205 40.5282 81.8168 40.3335C82.1131 40.1388 82.3541 39.87 82.516 39.5536L83.0132 38.6095L82.8143 36.6436C82.8089 36.6068 82.8089 36.5694 82.8143 36.5326V36.3771C82.8276 36.2433 82.8887 36.119 82.9862 36.0271C83.0837 35.9352 83.2111 35.882 83.3447 35.8773H84.5379L87.1563 31.6567C87.1563 31.6567 87.2116 31.5567 87.2337 31.5567C87.2558 31.5567 87.2337 31.6456 87.2337 31.6678C87.2889 31.8677 87.3331 32.0676 87.3773 32.2675C87.665 33.4402 87.8717 34.6315 87.996 35.8328H98.4256C98.4902 34.8395 98.6455 33.8542 98.8896 32.8895C98.9702 32.5823 99.0736 32.2815 99.199 31.9899V31.9232C99.2217 31.8573 99.2514 31.794 99.2874 31.7344L99.3426 31.6456L100.337 32.9673L102.293 35.8328H103.574C103.644 35.8327 103.713 35.8463 103.777 35.873C103.842 35.8997 103.9 35.9389 103.95 35.9883C104.042 36.0821 104.104 36.2023 104.127 36.3326V36.4326V36.5214C104.127 36.5214 104.127 36.5214 104.127 36.6547L104.005 38.2097C104.436 38.6237 104.89 39.0131 105.364 39.3759C105.546 39.5234 105.758 39.6295 105.985 39.687C106.212 39.7445 106.449 39.7521 106.679 39.7091C106.844 39.6779 107.007 39.6333 107.165 39.5758C110.336 38.4207 109.474 32.0232 110.579 29.713C110.594 29.6844 110.614 29.6591 110.639 29.6385C110.664 29.618 110.693 29.6026 110.724 29.5933C110.755 29.584 110.787 29.581 110.819 29.5844C110.851 29.5878 110.882 29.5975 110.91 29.613C111.081 29.7156 111.272 29.7819 111.469 29.8077C111.667 29.8335 111.867 29.8184 112.059 29.7633C112.25 29.7081 112.429 29.6141 112.583 29.487C112.737 29.3599 112.863 29.2025 112.954 29.0244C113.8 27.984 114.489 26.8238 114.998 25.5813C115.143 25.2304 115.197 24.848 115.153 24.4706C115.075 23.9819 114.866 23.7264 114.512 23.7153C114.438 23.7144 114.367 23.6904 114.307 23.6465C114.248 23.6027 114.204 23.5414 114.181 23.471C113.937 22.8379 113.562 22.5269 113.076 22.7268C112.997 22.7523 112.912 22.7508 112.834 22.7227C112.756 22.6946 112.69 22.6414 112.645 22.5713C112.504 22.3004 112.274 22.0869 111.994 21.9674C111.714 21.8479 111.401 21.8298 111.109 21.916C111.084 21.9214 111.058 21.92 111.034 21.912C111.01 21.904 110.988 21.8896 110.971 21.8704C110.954 21.8512 110.943 21.8278 110.938 21.8026C110.933 21.7774 110.935 21.7514 110.943 21.7272C111.264 20.8897 111.44 20.0031 111.463 19.106C111.478 18.5373 111.298 17.9807 110.954 17.5288C110.457 16.8735 109.938 16.5626 109.386 16.9513C109.205 17.085 109.063 17.2644 108.974 17.4711C108.884 17.6779 108.851 17.9047 108.877 18.1286C109.006 19.5388 108.931 20.9603 108.656 22.3492C108.104 22.3492 107.728 22.8046 107.552 23.6598C107.516 23.8428 107.498 24.0287 107.496 24.2151V26.6253C107.475 27.0799 107.62 27.5266 107.905 27.8804C107.953 27.9467 107.985 28.0239 107.996 28.1053C108.008 28.1866 107.999 28.2696 107.971 28.3469C107.404 30.1307 106.703 31.8684 105.872 33.5448L102.425 27.5472C102.286 27.1922 102.075 26.8705 101.804 26.6027C101.534 26.3349 101.211 26.1269 100.856 25.9922L100.525 25.8589L100.116 25.7034C99.8619 25.9922 99.5857 26.2921 99.2874 26.592L98.7792 27.0585L98.514 27.2917L98.2488 27.525L97.9726 27.7582L97.4976 28.1358C97.2655 28.3357 97.0114 28.5246 96.7684 28.7245L96.238 29.1354L95.6304 29.5908L94.7355 30.2794L93.9952 30.857L93.8185 31.0458C93.5818 31.2653 93.426 31.5589 93.3765 31.8788C93.3602 31.9818 93.3602 32.0868 93.3765 32.1898V32.2453C93.3765 32.2453 93.3765 32.3009 93.3765 32.3342C93.3714 32.3673 93.3714 32.401 93.3765 32.4341V32.5674V32.6452V32.7007L93.4539 32.7896L93.5423 32.8784C93.6306 32.935 93.7277 32.9763 93.8295 33.0006C93.9668 33.0395 94.1121 33.0395 94.2493 33.0006C94.3053 32.9808 94.3549 32.9463 94.393 32.9006C94.6581 32.6452 94.5145 32.1454 94.1168 31.8455C94.2906 31.8196 94.468 31.8358 94.6344 31.8927C94.8008 31.9496 94.9512 32.0455 95.0733 32.1726C95.1954 32.2997 95.2855 32.4542 95.3363 32.6233C95.3871 32.7924 95.397 32.9712 95.3652 33.145C95.3537 33.247 95.3315 33.3475 95.2989 33.4449C95.243 33.6457 95.132 33.8266 94.9785 33.9669C94.8388 34.0746 94.6779 34.1512 94.5064 34.1914C94.3349 34.2316 94.1569 34.2346 93.9842 34.2001C93.1109 34.0628 92.3216 33.5986 91.7745 32.9006C91.3215 32.3786 90.9017 31.7122 90.3382 30.9125C90.1062 30.5793 89.8521 30.2239 89.5538 29.8018C89.4544 29.6686 87.5872 27.7471 87.4657 27.5805C87.0466 27.1482 86.6484 26.696 86.2725 26.2255L86.1399 26.07C85.9705 26.1512 85.8111 26.2518 85.6648 26.3698C85.3301 26.6395 85.0648 26.9862 84.8914 27.3806L79.2899 36.1549C78.0415 36.3437 76.9808 37.1434 74.6717 39.176C74.6395 39.2036 74.6009 39.2228 74.5594 39.2316C74.5179 39.2404 74.4749 39.2387 74.4343 39.2266C74.3937 39.2144 74.3567 39.1922 74.3268 39.1621C74.2968 39.1319 74.2749 39.0947 74.2629 39.0538C74.1824 38.7323 74.014 38.44 73.7768 38.2097C73.3275 39.0121 72.6867 39.6897 71.9121 40.1813C71.1375 40.6729 70.2535 40.9632 69.3396 41.026C68.4257 41.0888 67.5106 40.9221 66.6767 40.541C65.8428 40.1599 65.1163 39.5763 64.5625 38.8428H64.3305C63.2367 39.4314 63.4245 40.2644 64.6398 41.3307Z" fill="#F2C494" stroke="#282E3D" stroke-width="1.26851" stroke-miterlimit="10" stroke-linecap="square"/>
<path d="M102.911 48.9943C104.767 47.7837 106.347 46.7174 107.695 45.9066L107.949 45.7512C108.325 45.529 108.69 45.318 109.054 45.1403L109.297 45.007L109.584 44.8737L109.728 44.8071L109.872 44.7404C110.222 44.5823 110.595 44.4811 110.977 44.4406C109.872 44.5294 105.618 44.8626 103.795 45.2291L103.243 46.1288L102.911 48.9943Z" fill="#F2C494" stroke="#282E3D" stroke-width="1.26851" stroke-miterlimit="10" stroke-linecap="square"/>
<path d="M86.5266 50.5049L87.4989 51.1157L87.753 51.2601L88.1949 51.5267L88.449 51.6822C89.7859 52.4819 91.2553 53.326 92.9788 54.2368C93.1055 54.3056 93.2388 54.3614 93.3766 54.4034H93.476C93.8143 54.2845 94.1431 54.1397 94.4593 53.9702L94.9344 53.7147L95.4095 53.4482L95.8735 53.1927L97.4424 52.282L97.6081 52.1931L99.2322 51.2157L99.4973 51.0602L99.8288 50.8492L100.459 50.4604L86.5266 50.5049Z" fill="#282E3D" stroke="#282E3D" stroke-width="1.26851" stroke-miterlimit="10" stroke-linecap="square"/>
<path d="M75.2241 44.4406H75.5003C76.1694 44.4337 76.831 44.5819 77.4338 44.8737C77.5885 44.9515 77.7431 45.0292 77.8868 45.1181L78.3397 45.3624L79.2126 45.8622L79.6435 46.1066L79.765 46.1732L80.2069 46.4398L80.6378 46.7064L81.2897 47.1062L81.9194 47.4949L84.1291 48.9055L83.8308 46.0399L83.5767 44.8737C80.9803 44.5183 77.3123 43.9852 75.2241 44.4406Z" fill="#F2C494" stroke="#282E3D" stroke-width="1.26851" stroke-miterlimit="10" stroke-linecap="square"/>
<path d="M103.198 46.1066L103.276 45.4513L104.149 36.4659" stroke="#282E3D" stroke-width="1.26851" stroke-miterlimit="10" stroke-linecap="square"/>
<path d="M102.58 55.6473C102.472 56.2165 102.208 56.7441 101.818 57.1701C101.427 57.5961 100.926 57.9036 100.37 58.0575C100.157 58.1132 99.9384 58.1467 99.7182 58.1574C97.7627 58.2685 97.4091 57.8242 95.1 57.4577L94.2825 57.3466L93.7853 57.2578H93.5422C94.1941 57.1467 95.9287 56.8246 96.1607 56.758C98.3151 56.136 100.425 55.5584 102.425 54.9476C102.557 55.1552 102.612 55.403 102.58 55.6473Z" fill="#F2C494" stroke="#282E3D" stroke-width="1.26851" stroke-miterlimit="10" stroke-linecap="square"/>
<path d="M93.2661 54.4811C93.0451 54.5477 93.0783 54.5921 92.8462 54.6144H92.4375C92.0142 54.6366 91.5901 54.6366 91.1669 54.6144C90.2593 54.5559 89.3656 54.3612 88.5153 54.0368C88.1533 53.8834 87.769 53.7896 87.3773 53.7591C86.8612 53.6702 86.3309 53.7199 85.84 53.9032C85.3492 54.0866 84.9152 54.397 84.5821 54.8032C79.6435 53.2371 75.9976 51.5378 73.8984 49.7163C73.3782 49.2675 73.0126 48.6649 72.8538 47.9946C72.6951 47.3242 72.7513 46.6206 73.0145 45.9844C73.4709 45.2456 74.1965 44.7155 75.0363 44.5072C75.2827 44.4496 75.5347 44.4198 75.7876 44.4183H76.1301C76.5119 44.4588 76.8848 44.5601 77.235 44.7182L77.3786 44.7849L77.4338 44.8737L77.7432 45.0292L77.9863 45.1625C78.3288 45.3402 78.6933 45.5512 79.0911 45.7734L79.3452 45.9289C80.6931 46.7397 82.284 47.8059 84.1291 49.0165H84.2175L84.4827 49.1831L84.7589 49.3609L85.1787 49.6385L85.2781 49.7052L85.5765 49.894L85.8748 50.0828L86.4935 50.4715L87.1232 50.8603L87.7198 51.2268L89.3439 52.2042L89.5097 52.293L91.0785 53.2038L91.5425 53.4593L92.0176 53.7258L92.4927 53.9813C92.7305 54.1773 92.99 54.345 93.2661 54.4811Z" fill="#F2C494" stroke="#282E3D" stroke-width="1.26851" stroke-miterlimit="10" stroke-linecap="square"/>
<path d="M113.23 49.6385C110.579 52.0376 106.844 53.5148 102.657 54.8698H102.403C100.392 55.4807 98.2931 56.0583 96.1276 56.6802C95.9067 56.7469 94.1721 57.069 93.5202 57.18H93.2993L92.4485 57.3022C90.7471 57.5688 89.576 57.9464 87.8635 58.0686C87.2878 58.1288 86.7064 58.0365 86.1772 57.8007C85.6481 57.5649 85.1895 57.1939 84.8473 56.7247C84.6164 56.3662 84.4691 55.96 84.4164 55.5362C84.3682 55.2632 84.4234 54.9819 84.5711 54.7477C84.9113 54.3497 85.3498 54.0487 85.8424 53.8752C86.335 53.7017 86.8644 53.6617 87.3773 53.7592C87.7584 53.7967 88.1312 53.8941 88.4822 54.0479C89.3324 54.3724 90.2262 54.567 91.1338 54.6255C91.557 54.6478 91.9811 54.6478 92.4043 54.6255H92.9015C93.1336 54.6036 93.363 54.5589 93.5865 54.4922H93.6859C93.8238 54.4502 93.957 54.3944 94.0837 54.3256C95.8072 53.4148 97.2766 52.5707 98.6135 51.771L98.8787 51.6155L99.3095 51.349L99.5526 51.2046L100.525 50.5937C100.967 50.3272 101.387 50.0606 101.795 49.794L101.95 49.6941L102.094 49.5941H102.171L102.701 49.2498L102.989 49.061L105.198 47.6504L105.828 47.2617L106.48 46.8618L106.911 46.5953L107.353 46.3287L107.474 46.2621L107.905 46.0177L108.778 45.5179L109.231 45.2736C109.375 45.1847 109.529 45.107 109.684 45.0292C110.275 44.7198 110.929 44.5489 111.595 44.5294H111.871C114.17 44.8737 115.617 47.4949 113.23 49.6385Z" fill="#F2C494" stroke="#282E3D" stroke-width="1.26851" stroke-miterlimit="10" stroke-linecap="square"/>
<path d="M95.6857 34.1668C95.9177 34.1668 96.1166 34.1668 96.3265 34.1668C96.5217 34.1408 96.7141 34.0961 96.901 34.0335C97.2639 33.9056 97.5954 33.7011 97.8732 33.4338C98.4465 32.8891 98.8691 32.204 99.0996 31.4457C99.1927 31.1917 99.3442 30.9634 99.5415 30.7793C99.7368 30.6177 99.975 30.5173 100.227 30.4905C100.037 30.6146 99.875 30.7773 99.7515 30.9681C99.6674 31.1558 99.608 31.3536 99.5747 31.5567C99.4733 32.4927 99.0088 33.3508 98.282 33.9447C97.9073 34.2462 97.4553 34.4349 96.9783 34.4889C96.5242 34.5238 96.071 34.4109 95.6857 34.1668Z" fill="#282E3D"/>
<path d="M90.9127 34.1668C90.527 34.4202 90.0684 34.5374 89.609 34.5C89.1355 34.4458 88.6871 34.257 88.3164 33.9558C87.9508 33.6621 87.6479 33.2972 87.4258 32.8831C87.2037 32.469 87.0669 32.0141 87.0237 31.5456C86.9864 31.3421 86.9233 31.1443 86.8359 30.957C86.7154 30.7638 86.553 30.6005 86.3608 30.4794C86.6157 30.506 86.8575 30.6063 87.0569 30.7681C87.251 30.955 87.4019 31.1825 87.4988 31.4346C87.7294 32.1929 88.1519 32.878 88.7252 33.4227C89.003 33.69 89.3345 33.8945 89.6974 34.0224C89.8881 34.085 90.0841 34.1296 90.283 34.1557C90.4819 34.189 90.6918 34.1557 90.9127 34.1668Z" fill="#282E3D"/>
<path d="M96.5695 33.456H97.2324C97.0887 33.256 96.8678 33.256 96.5695 33.456Z" stroke="#282E3D" stroke-width="1.26851" stroke-miterlimit="10" stroke-linecap="square"/>
<path d="M89.2776 33.4338H89.9405C89.6532 33.256 89.4323 33.256 89.2776 33.4338Z" stroke="#282E3D" stroke-width="1.26851" stroke-miterlimit="10" stroke-linecap="square"/>
<path d="M83.7645 46.051L83.6872 45.3402L82.7701 36.4659" stroke="#282E3D" stroke-width="1.26851" stroke-miterlimit="10" stroke-linecap="square"/>
<path d="M109.076 24.3817C109.46 24.9433 110.04 25.3396 110.7 25.4924C111.026 25.4962 111.341 25.3773 111.584 25.1592C111.86 24.9815 112.037 24.7038 111.938 24.4595C111.886 24.3496 111.795 24.2627 111.684 24.2151L111.22 24.0041L110.269 23.5598C109.64 23.2599 109.01 22.96 108.402 22.5935L108.104 22.4158L108.491 21.816L108.767 22.016C109.319 22.4047 109.872 22.7601 110.513 23.1266L111.419 23.6376L111.871 23.9041C112.061 24.0175 112.2 24.2007 112.258 24.415C112.292 24.6214 112.257 24.8332 112.159 25.0178C112.061 25.2024 111.906 25.3496 111.717 25.4369C111.412 25.655 111.04 25.7574 110.667 25.7256C109.987 25.4958 109.419 25.0157 109.076 24.3817Z" fill="#282E3D"/>
<path d="M109.352 27.7693C109.695 27.6365 110.01 27.4406 110.28 27.1917C110.461 26.9117 110.546 26.5805 110.524 26.2476V25.9033L111.297 26.0588L111.175 26.3809C111.07 26.8177 110.826 27.2078 110.479 27.4916C110.123 27.6514 109.742 27.7454 109.352 27.7693Z" fill="#282E3D"/>
<path d="M110.91 25.8589C110.833 26.5586 110.722 27.0806 111.286 27.2806C111.588 27.3484 111.905 27.2967 112.17 27.1362C112.755 26.7893 113.242 26.2983 113.587 25.7095C113.931 25.1207 114.12 24.4535 114.136 23.7708" stroke="#282E3D" stroke-width="1.26851" stroke-miterlimit="10" stroke-linecap="square"/>
<path d="M112.17 24.2484C112.383 24.0511 112.535 23.7969 112.609 23.5156C112.684 23.2344 112.677 22.9377 112.59 22.6602" stroke="#282E3D" stroke-width="1.26851" stroke-miterlimit="10" stroke-linecap="square"/>
<path d="M110.358 23.1044C110.579 22.7091 110.725 22.276 110.789 21.8271" stroke="#282E3D" stroke-width="1.26851" stroke-miterlimit="10" stroke-linecap="square"/>
<path d="M112.347 27.2361C112.347 27.9137 113.264 28.0692 113.849 27.5471" stroke="#282E3D" stroke-width="1.26851" stroke-miterlimit="10" stroke-linecap="square"/>
<path d="M79.3231 35.7995C80.1438 36.0293 80.8589 36.54 81.3449 37.2434C80.7559 36.7579 80.0185 36.4912 79.2568 36.4881H78.9143L78.9806 35.6884L79.3231 35.7995Z" fill="#282E3D"/>
<path d="M106.159 33.6226C105.905 34.0891 105.607 34.4667 105.375 34.8888C105.121 35.2945 104.987 35.7644 104.988 36.2438C104.867 35.7517 104.89 35.2347 105.055 34.7555C105.187 34.2668 105.386 33.8003 105.508 33.3671L105.596 33.0339L106.314 33.3227L106.159 33.6226Z" fill="#282E3D"/>
<path d="M82.8254 36.5103C82.8483 36.4584 82.878 36.4099 82.9138 36.3659C82.9611 36.3557 83.0101 36.3557 83.0574 36.3659H103.795C103.891 36.3679 103.982 36.4078 104.049 36.477C104.092 36.5108 104.123 36.5575 104.138 36.6103C104.154 36.6607 104.154 36.7153 104.138 36.7658L103.254 45.5623L103.176 46.2176L102.889 49.1054H102.801L102.536 49.272L102.259 49.4497L101.84 49.7274L101.74 49.794L101.409 50.0051L101.144 50.1717L100.525 50.5604H86.5266L85.256 49.7607L85.1014 49.6607L84.9577 49.5608H84.8804L84.3501 49.2165L84.0628 48.9277L83.7645 46.0621L83.6982 45.3513L82.8144 36.6769C82.801 36.6216 82.8048 36.5634 82.8254 36.5103ZM93.487 44.7071C93.7449 44.7071 93.9969 44.6303 94.2113 44.4862C94.4257 44.3422 94.5928 44.1375 94.6915 43.8981C94.7902 43.6586 94.816 43.3951 94.7657 43.1408C94.7154 42.8866 94.5912 42.6531 94.4089 42.4698C94.2266 42.2865 93.9943 42.1617 93.7414 42.1111C93.4885 42.0605 93.2264 42.0865 92.9881 42.1857C92.7499 42.2849 92.5463 42.4529 92.4031 42.6684C92.2598 42.8839 92.1833 43.1373 92.1833 43.3965C92.1833 43.7441 92.3207 44.0775 92.5652 44.3233C92.8097 44.569 93.1413 44.7071 93.487 44.7071Z" fill="#F7F7F7" stroke="#282E3D" stroke-width="1.26851" stroke-miterlimit="10"/>
<path d="M86.5266 50.5049L87.4989 51.1158L87.753 51.2712H99.3206L99.5857 51.1046L99.9172 50.8936L100.547 50.5049H86.5266Z" stroke="#282E3D" stroke-width="1.26851" stroke-miterlimit="10"/>
<path d="M86.5266 50.5049L87.4989 51.1158L87.753 51.2601H99.2764L99.873 50.8936L100.503 50.5049H86.5266Z" fill="#F7F7F7" stroke="#282E3D" stroke-width="0.654715" stroke-miterlimit="10"/>
<path d="M92.1833 43.3965C92.1833 43.6557 92.2598 43.9091 92.4031 44.1247C92.5463 44.3402 92.7499 44.5082 92.9881 44.6074C93.2264 44.7066 93.4885 44.7325 93.7414 44.682C93.9943 44.6314 94.2266 44.5066 94.4089 44.3233C94.5912 44.14 94.7154 43.9065 94.7657 43.6522C94.816 43.398 94.7902 43.1345 94.6915 42.895C94.5928 42.6555 94.4257 42.4508 94.2114 42.3068C93.997 42.1628 93.7449 42.0859 93.4871 42.0859C93.1413 42.0859 92.8097 42.224 92.5652 42.4698C92.3207 42.7156 92.1833 43.0489 92.1833 43.3965Z" fill="#282E3D"/>
<path d="M82.8254 36.4992C82.818 36.4589 82.818 36.4174 82.8254 36.3771L82.8807 36.266H103.795C103.843 36.2657 103.89 36.2754 103.934 36.2945C103.978 36.3137 104.017 36.3418 104.049 36.3771C104.099 36.4397 104.137 36.5113 104.16 36.5881V36.3548C104.133 36.2124 104.059 36.0833 103.95 35.9883C103.854 35.8978 103.728 35.8463 103.596 35.8439H83.3779C83.2443 35.8486 83.1169 35.9019 83.0194 35.9938C82.9219 36.0857 82.8608 36.21 82.8475 36.3437L82.8254 36.4992Z" stroke="#282E3D" stroke-width="1.26851" stroke-miterlimit="10"/>
<path d="M84.5711 23.5932C84.9657 24.3753 85.4318 25.119 85.9632 25.8145L86.1399 26.0478L86.2725 26.2032C86.7245 26.7599 87.2077 27.2902 87.7198 27.7915C87.8414 27.9137 89.7085 29.8352 89.808 30.0129C90.1063 30.3905 90.3604 30.7459 90.5924 31.1236C91.1559 31.9232 91.5757 32.5896 92.0287 33.1117C92.5757 33.8096 93.3651 34.2738 94.2384 34.4112C94.4111 34.4456 94.5891 34.4427 94.7606 34.4024C94.9321 34.3622 95.093 34.2857 95.2327 34.1779C95.3861 34.0376 95.4972 33.8567 95.5531 33.6559C95.5857 33.5586 95.6079 33.458 95.6194 33.356C95.6512 33.1823 95.6413 33.0034 95.5905 32.8343C95.5397 32.6652 95.4495 32.5107 95.3275 32.3836C95.2054 32.2566 95.0549 32.1606 94.8886 32.1037C94.7222 32.0468 94.5448 32.0306 94.3709 32.0565C94.7687 32.3564 94.9123 32.8562 94.6471 33.1117C94.609 33.1573 94.5594 33.1918 94.5035 33.2116C94.3662 33.2505 94.2209 33.2505 94.0837 33.2116C93.9834 33.1825 93.887 33.1415 93.7964 33.0895L93.708 33.0006L93.6307 32.9117V32.8562V32.7785V32.6452C93.6255 32.6121 93.6255 32.5783 93.6307 32.5452C93.6361 32.5159 93.6361 32.4857 93.6307 32.4564V32.4008C93.6142 32.3016 93.6142 32.2002 93.6307 32.1009C93.6983 31.6899 93.9196 31.3204 94.2494 31.068L94.9896 30.4905L95.8846 29.8018L96.4922 29.3465L97.0225 28.9355C97.2656 28.7356 97.5197 28.5468 97.7517 28.3469L98.2268 27.9692L98.503 27.736L98.7682 27.5027L99.0333 27.2695L99.5415 26.803C99.8288 26.5031 100.116 26.2032 100.37 25.9145L100.436 25.8367C101.284 24.8849 102.008 23.8287 102.591 22.6935C103.751 20.3389 103.696 18.2508 102.282 17.029C102.084 16.856 101.869 16.7035 101.641 16.5737C101.196 16.3309 100.72 16.1515 100.227 16.0405L99.5305 15.6962C99.6515 15.7837 99.7627 15.8843 99.862 15.9961V16.0628C100.056 16.3024 100.203 16.5778 100.293 16.8736C100.453 17.3869 100.453 17.9374 100.293 18.4507C100.215 18.7213 100.091 18.9767 99.9282 19.206C99.4816 19.7985 98.9267 20.2998 98.2931 20.6832C98.8878 20.0803 99.275 19.3019 99.3979 18.4618C99.4155 18.344 99.4155 18.2242 99.3979 18.1064C99.3628 17.9275 99.2786 17.7621 99.1549 17.6288C98.735 17.129 97.9837 17.3289 97.2656 17.9176C97.0002 18.1544 96.6866 18.3302 96.3467 18.4327C96.0068 18.5353 95.6488 18.5621 95.2975 18.5114C94.9463 18.4606 94.6102 18.3335 94.3128 18.1389C94.0154 17.9443 93.7638 17.6868 93.5755 17.3845H93.3876C93.198 17.6853 92.9458 17.9413 92.6484 18.1348C92.351 18.3283 92.0154 18.4547 91.6647 18.5054C91.314 18.556 90.9566 18.5297 90.617 18.4283C90.2774 18.3268 89.9637 18.1526 89.6975 17.9176C88.9573 17.3178 88.206 17.1179 87.7861 17.6621C87.6654 17.7845 87.5812 17.9384 87.5431 18.1064C87.5364 18.2063 87.5364 18.3064 87.5431 18.4063C87.6371 19.2744 88.0275 20.083 88.6479 20.6943C88.0122 20.3139 87.4567 19.812 87.0128 19.2171C86.853 18.9882 86.7265 18.7377 86.6371 18.4729C86.6371 18.4729 86.6371 18.4063 86.6371 18.373C86.596 18.235 86.5665 18.0938 86.5487 17.9509C86.4873 17.3082 86.66 16.6649 87.0349 16.1405L87.0238 15.9961C87.1319 15.8784 87.2502 15.7706 87.3773 15.674C87.2008 15.6623 87.0236 15.6623 86.847 15.674C86.3172 15.7194 85.804 15.8825 85.3445 16.1516C85.137 16.2733 84.9443 16.4187 84.7699 16.5848C83.3116 17.962 83.1127 20.6276 84.5711 23.5932Z" fill="#F7F7F7" stroke="#282E3D" stroke-width="1.26851" stroke-miterlimit="10"/>
<path d="M93.5533 17.3956C93.7417 17.6979 93.9933 17.9554 94.2907 18.15C94.5881 18.3446 94.9242 18.4717 95.2754 18.5225C95.6267 18.5732 95.9847 18.5464 96.3246 18.4438C96.6645 18.3413 96.9781 18.1655 97.2435 17.9287C97.9616 17.34 98.7129 17.1401 99.1327 17.6399C99.2565 17.7732 99.3407 17.9386 99.3758 18.1175C99.3934 18.2353 99.3934 18.3551 99.3758 18.4729C99.2529 19.313 98.8657 20.0914 98.271 20.6943C98.9046 20.3109 99.4595 19.8096 99.9061 19.2171C100.069 18.9878 100.192 18.7324 100.271 18.4618C100.431 17.9485 100.431 17.398 100.271 16.8847C100.181 16.5889 100.034 16.3135 99.8398 16.0739V16.0072C99.7481 15.8927 99.6444 15.7885 99.5305 15.6962L99.409 15.6074C97.818 14.4967 95.763 16.7181 93.5533 17.3956Z" fill="#F7F7F7" stroke="#282E3D" stroke-width="1.26851" stroke-miterlimit="10"/>
<path d="M86.4382 17.9731C86.4559 18.116 86.4855 18.2572 86.5266 18.3951C86.5266 18.3951 86.5266 18.4618 86.5266 18.4951C86.616 18.7598 86.7425 19.0104 86.9022 19.2393C87.3461 19.8342 87.9016 20.3361 88.5374 20.7165C87.917 20.1052 87.5266 19.2966 87.4325 18.4285C87.4258 18.3286 87.4258 18.2284 87.4325 18.1286C87.4707 17.9606 87.5549 17.8067 87.6756 17.6843C88.0954 17.1401 88.8467 17.34 89.587 17.9398C89.8532 18.1748 90.1669 18.349 90.5065 18.4504C90.8461 18.5519 91.2035 18.5782 91.5542 18.5276C91.9048 18.4769 92.2404 18.3505 92.5379 18.157C92.8353 17.9635 93.0875 17.7075 93.2771 17.4066C91.0674 16.6958 88.9793 14.4745 87.3883 15.6185L87.3773 15.674C87.2487 15.7811 87.1303 15.9001 87.0237 16.0294L86.9243 16.1627C86.5495 16.687 86.3768 17.3304 86.4382 17.9731Z" fill="#F7F7F7" stroke="#282E3D" stroke-width="1.26851" stroke-miterlimit="10"/>
<path d="M101.32 19.106C101.27 18.7195 101.14 18.3478 100.939 18.0149C100.737 17.682 100.468 17.3954 100.149 17.1734L100.635 16.6514C100.919 16.9868 101.126 17.3798 101.245 17.8034C101.363 18.2271 101.389 18.6714 101.32 19.106Z" fill="#282E3D"/>
<path d="M101.74 16.9735C101.153 16.5872 100.474 16.3649 99.7736 16.3293L99.9393 15.6518C100.642 15.9304 101.262 16.3854 101.74 16.9735Z" fill="#282E3D"/>
<path d="M96.8236 16.0961C97.4084 15.6904 98.1154 15.5019 98.8234 15.563C99.1987 15.603 99.559 15.7328 99.8743 15.9415C100.189 16.1502 100.45 16.4317 100.635 16.7625L100.017 17.0624C99.9079 16.7851 99.7333 16.5388 99.5079 16.3451C99.2825 16.1515 99.0133 16.0164 98.7239 15.9517C98.0929 15.7783 97.4216 15.8293 96.8236 16.0961Z" fill="#282E3D"/>
<path d="M102.027 22.3048C102.361 21.7735 102.579 21.177 102.667 20.5547C102.754 19.9325 102.71 19.2987 102.536 18.6951C102.85 19.2775 103.01 19.9317 103 20.5943C102.991 21.2711 102.875 21.9421 102.657 22.5824L102.027 22.3048Z" fill="#282E3D"/>
<path d="M101.011 22.6602C101.076 23.7143 100.89 24.7688 100.47 25.7367L99.8951 25.3702C100.474 24.5677 100.856 23.6392 101.011 22.6602Z" fill="#282E3D"/>
<path d="M100.083 24.1485C100.18 24.6035 100.18 25.0737 100.085 25.529C99.99 25.9843 99.801 26.4145 99.5305 26.7919L99.0112 26.3365C99.3345 26.0695 99.5973 25.7362 99.7821 25.3589C99.967 24.9815 100.07 24.5689 100.083 24.1485Z" fill="#282E3D"/>
<path d="M94.5256 29.9906C95.2548 29.5389 95.877 28.9324 96.3486 28.2136C96.0496 29.0464 95.5747 29.8042 94.9565 30.4349L94.5256 29.9906Z" fill="#282E3D"/>
<path d="M95.0228 29.0466C95.0683 29.4367 94.9743 29.8304 94.7576 30.1572C94.5771 30.4505 94.4148 30.7547 94.2715 31.068L93.6859 30.7237C93.9283 30.4454 94.1945 30.1889 94.4814 29.9573C94.7662 29.7302 94.9587 29.4063 95.0228 29.0466Z" fill="#282E3D"/>
<path d="M92.9567 30.6682C92.9104 31.0573 92.9764 31.4516 93.1469 31.8041C93.3173 32.1566 93.5849 32.4524 93.9179 32.6563L93.4981 33.2005C93.1855 32.8601 92.9782 32.4356 92.9015 31.9788C92.7745 31.5479 92.7939 31.0867 92.9567 30.6682Z" fill="#282E3D"/>
<path d="M90.6035 30.0573C91.0146 31.0742 91.5894 32.0161 92.305 32.8451L91.7746 33.2783C91.2075 32.2782 90.8116 31.1893 90.6035 30.0573Z" fill="#282E3D"/>
<path d="M90.3051 31.2457C90.1347 30.8557 90.0158 30.445 89.9516 30.0239C89.8985 29.6225 89.7466 29.2407 89.5096 28.9133C89.8361 29.1658 90.0975 29.4933 90.272 29.8685C90.4315 30.2126 90.6358 30.5338 90.8796 30.8236L90.3051 31.2457Z" fill="#282E3D"/>
<path d="M85.7422 22.4603C85.5412 22.7261 85.4121 23.0398 85.3676 23.3707C85.323 23.7016 85.3646 24.0384 85.4881 24.3484C85.7594 24.9629 86.133 25.5263 86.5929 26.0144L86.0405 26.4143C85.6377 25.8111 85.3424 25.1422 85.1677 24.4373C85.087 24.0715 85.087 23.6924 85.1677 23.3266C85.2767 22.9904 85.4755 22.6908 85.7422 22.4603Z" fill="#282E3D"/>
<path d="M86.2725 23.8375C86.2573 24.6474 86.4719 25.4449 86.8912 26.1366C87.3888 26.7877 87.9767 27.3637 88.6368 27.8471C88.1756 27.8134 87.7277 27.6762 87.3262 27.4455C86.9247 27.2148 86.5797 26.8966 86.3167 26.5143C86.0479 26.1142 85.9054 25.642 85.9079 25.1592C85.9026 24.6929 86.029 24.2346 86.2725 23.8375Z" fill="#282E3D"/>
<path d="M84.3612 18.6951C84.1266 19.4844 84.0527 20.3131 84.1438 21.1317C84.2349 21.9504 84.4892 22.7422 84.8915 23.4599L84.2617 23.7264C83.9695 22.9064 83.8163 22.0429 83.8087 21.1719C83.8002 20.3145 83.9893 19.4667 84.3612 18.6951Z" fill="#282E3D"/>
<path d="M86.9023 16.8735C86.3499 17.34 85.7201 17.4844 85.4108 18.0842C85.4675 17.7484 85.6124 17.4339 85.8306 17.1734C86.0333 16.9332 86.2215 16.681 86.3941 16.4182L86.9023 16.8735Z" fill="#282E3D"/>
<path d="M86.7145 18.2175C86.4651 18.441 86.2817 18.7292 86.1842 19.0505C86.0973 19.4156 86.0973 19.7961 86.1842 20.1612C85.9936 19.8207 85.8839 19.4406 85.8638 19.0505C85.8623 18.6206 85.9769 18.1984 86.1952 17.8287L86.7145 18.2175Z" fill="#282E3D"/>
<path d="M86.1841 18.4285C86.1888 17.9554 86.3436 17.4963 86.626 17.1179C86.7501 16.9337 86.9121 16.7784 87.1011 16.6625L87.6535 16.3293L87.2226 16.7847C87.0862 16.9259 86.9841 17.097 86.9243 17.2845C86.7858 17.6387 86.7664 18.0288 86.8691 18.3951L86.1841 18.4285Z" fill="#282E3D"/>
<path d="M85.6096 13.3305C85.9985 13.3936 86.36 13.5715 86.6482 13.8414C86.6564 13.339 86.7008 12.8379 86.7807 12.342C86.2795 12.5098 85.8607 12.8633 85.6096 13.3305Z" stroke="#282E3D" stroke-width="1.26851" stroke-miterlimit="10"/>
<path d="M101.121 13.3305C100.733 13.3936 100.371 13.5715 100.083 13.8414C100.075 13.339 100.03 12.8379 99.9503 12.342C100.454 12.5057 100.874 12.8603 101.121 13.3305Z" stroke="#282E3D" stroke-width="1.26851" stroke-miterlimit="10"/>
<path d="M84.6152 13.9524C84.6982 13.7593 84.8379 13.5963 85.0156 13.4851C85.1933 13.374 85.4005 13.32 85.6095 13.3305C85.9984 13.3936 86.3599 13.5714 86.6481 13.8414C86.6564 13.339 86.7007 12.8379 86.7807 12.342C88.0844 4.45615 98.4256 4.32287 99.9061 12.0865C100.018 12.6985 100.077 13.3191 100.083 13.9413C100.429 13.5715 100.904 13.3523 101.409 13.3305C101.593 13.3531 101.768 13.422 101.919 13.5307C102.069 13.6394 102.19 13.7844 102.27 13.9524C102.445 14.2522 102.537 14.5936 102.536 14.941C102.547 15.1259 102.547 15.3114 102.536 15.4963C102.476 15.9512 102.318 16.3873 102.072 16.7736C101.874 16.6006 101.659 16.448 101.431 16.3182C100.986 16.0755 100.51 15.896 100.017 15.7851L99.5304 15.6962L99.4089 15.6074C97.8179 14.4967 95.763 16.718 93.5533 17.3956H93.3323C91.1227 16.6847 89.0345 14.4634 87.4436 15.6074L87.3773 15.674C87.2007 15.6623 87.0235 15.6623 86.847 15.674C86.3171 15.7194 85.8039 15.8825 85.3444 16.1516C85.137 16.2733 84.9442 16.4187 84.7699 16.5848C84.5776 16.241 84.4503 15.8644 84.3942 15.4741C84.3829 15.2891 84.3829 15.1037 84.3942 14.9187C84.3782 14.5823 84.4546 14.248 84.6152 13.9524Z" fill="#F2C494" stroke="#282E3D" stroke-width="1.26851" stroke-miterlimit="10"/>
<path d="M95.5309 19.6502C95.2779 19.9782 94.9574 20.2473 94.5912 20.439C94.2251 20.6308 93.822 20.7405 93.4096 20.7609C92.9952 20.7506 92.5886 20.6452 92.2209 20.4527C91.8532 20.2602 91.5342 19.9857 91.2883 19.6502C91.9134 20.0874 92.6489 20.3377 93.4096 20.3721C94.1656 20.3133 94.8948 20.0651 95.5309 19.6502Z" fill="#282E3D"/>
<path d="M94.8017 14.9521C94.9356 15.0323 95.0511 15.1401 95.1406 15.2683C95.23 15.3966 95.2915 15.5424 95.321 15.6962C95.3328 16.0327 95.2273 16.3627 95.0227 16.6292C94.8367 16.8846 94.5947 17.0936 94.3156 17.2401C94.0351 17.42 93.7179 17.5339 93.3875 17.5733C93.0511 17.5375 92.7267 17.4276 92.4374 17.2512C92.184 17.0897 91.966 16.8781 91.7966 16.6292C91.5844 16.3705 91.4743 16.0424 91.4872 15.7073C91.514 15.5525 91.5731 15.4051 91.6607 15.2749C91.7483 15.1447 91.8624 15.0347 91.9954 14.9521C91.8027 15.143 91.6917 15.4021 91.6861 15.674C91.7038 15.9421 91.8177 16.1947 92.0065 16.3849C92.3721 16.7917 92.8692 17.0553 93.4096 17.129C93.9495 17.0535 94.446 16.7902 94.8128 16.3849C94.9887 16.1971 95.0942 15.9536 95.1111 15.6962C95.0904 15.4266 94.9725 15.1739 94.7796 14.9854L94.8017 14.9521Z" fill="#282E3D"/>
<path d="M94.1941 10.3649C95.0559 9.88736 96.1386 10.3649 97.2987 11.1869C96.0834 9.19874 94.6471 8.78779 94.1278 10.3205L94.1941 10.3649Z" fill="#282E3D" stroke="#282E3D" stroke-width="0.245518" stroke-miterlimit="10"/>
<path d="M89.3329 11.1869C90.493 10.365 91.5426 9.88737 92.4375 10.365H92.4927C91.9845 8.7878 90.5482 9.19875 89.3329 11.1869Z" fill="#282E3D" stroke="#282E3D" stroke-width="0.245518" stroke-miterlimit="10"/>
<path d="M94.2273 12.9195C94.2273 14.0302 96.2381 14.4078 97.2987 13.1972C96.7535 13.391 96.1737 13.4667 95.5973 13.4193C95.9181 13.3766 96.2186 13.2372 96.4591 13.0195C95.7245 13.2344 94.9399 13.1993 94.2273 12.9195Z" fill="#282E3D" stroke="#282E3D" stroke-width="0.245518" stroke-miterlimit="10"/>
<path d="M89.3771 13.1972C90.4819 14.4078 92.4043 14.0857 92.4485 12.9195C91.7425 13.1943 90.9665 13.2294 90.2388 13.0195C90.4793 13.2372 90.7798 13.3766 91.1006 13.4193C90.5169 13.4706 89.929 13.3949 89.3771 13.1972Z" fill="#282E3D" stroke="#282E3D" stroke-width="0.245518" stroke-miterlimit="10"/>
<path d="M101.939 14.8188C101.865 14.6869 101.765 14.5717 101.646 14.48C101.526 14.3883 101.389 14.3222 101.243 14.2857C101.173 14.2631 101.098 14.2616 101.028 14.2813C100.957 14.3011 100.893 14.3412 100.845 14.3967C100.746 14.5078 100.691 14.7521 100.779 14.8077C100.867 14.8632 101.011 14.8077 101.232 14.9298C101.442 15.007 101.62 15.1514 101.74 15.3408C101.788 15.4432 101.813 15.5551 101.813 15.6684C101.813 15.7818 101.788 15.8937 101.74 15.9961C101.699 16.0961 101.632 16.1836 101.547 16.2499C101.462 16.3161 101.361 16.3588 101.254 16.3737C101.362 16.2755 101.43 16.1403 101.444 15.9945C101.459 15.8486 101.418 15.7027 101.331 15.5851C101.252 15.4668 101.151 15.365 101.033 15.2853L100.812 15.1853C100.721 15.1081 100.659 15.0025 100.635 14.8854C100.558 14.5966 100.713 14.4634 100.779 14.2745C100.834 14.1773 100.911 14.0938 101.002 14.0303C101.094 13.9669 101.199 13.925 101.309 13.908C101.418 13.9079 101.525 13.9317 101.623 13.9779C101.722 14.024 101.809 14.0913 101.878 14.1751C101.948 14.2588 101.998 14.3569 102.026 14.4623C102.054 14.5678 102.058 14.6781 102.038 14.7855L101.939 14.8188Z" fill="#282E3D"/>
<path d="M84.8914 14.8188C84.8706 14.718 84.8716 14.614 84.8941 14.5137C84.9166 14.4134 84.9601 14.319 85.0219 14.237C85.0836 14.155 85.162 14.0871 85.2519 14.0381C85.3418 13.989 85.4412 13.9598 85.5432 13.9524C85.6497 13.9469 85.7559 13.9696 85.8509 14.0183C85.9459 14.0671 86.0265 14.1401 86.0846 14.2301C86.1991 14.389 86.2782 14.5708 86.3166 14.7632C86.3166 15.0298 86.0293 15.1853 85.9078 15.2186C85.7834 15.2845 85.6682 15.3666 85.5653 15.4629C85.3885 15.6518 85.1565 15.8628 85.3554 16.1738C85.2484 16.1452 85.155 16.0792 85.0922 15.9875C85.0294 15.8959 85.0013 15.7847 85.0129 15.674C85.0363 15.4608 85.1296 15.2615 85.278 15.1075C85.4308 14.9924 85.6089 14.9162 85.7973 14.8854C85.9851 14.8854 86.0846 14.8854 86.1288 14.7521C86.1376 14.6778 86.1282 14.6025 86.1012 14.5327C86.0742 14.463 86.0306 14.401 85.9741 14.3523C85.9146 14.3202 85.8482 14.3034 85.7807 14.3034C85.7133 14.3034 85.6468 14.3202 85.5874 14.3523C85.3065 14.4315 85.0683 14.6191 84.9245 14.8743L84.8914 14.8188Z" fill="#282E3D"/>
<path d="M63.4025 35.433C63.4025 36.5313 63.7265 37.605 64.3335 38.5183C64.9405 39.4315 65.8032 40.1433 66.8126 40.5636C67.822 40.984 68.9328 41.0939 70.0043 40.8797C71.0759 40.6654 72.0602 40.1365 72.8328 39.3598C73.6054 38.5832 74.1315 37.5936 74.3446 36.5164C74.5578 35.4391 74.4484 34.3225 74.0303 33.3078C73.6122 32.293 72.9041 31.4257 71.9957 30.8155C71.0872 30.2053 70.0192 29.8796 68.9266 29.8796C67.4615 29.8796 66.0564 30.4647 65.0205 31.5061C63.9845 32.5476 63.4025 33.9601 63.4025 35.433Z" fill="#933FA1"/>
<path d="M63.4025 35.433C63.4025 36.5313 63.7265 37.605 64.3335 38.5183C64.9405 39.4315 65.8032 40.1433 66.8126 40.5636C67.822 40.984 68.9328 41.0939 70.0043 40.8797C71.0759 40.6654 72.0602 40.1365 72.8328 39.3598C73.6054 38.5832 74.1315 37.5936 74.3446 36.5164C74.5578 35.4391 74.4484 34.3225 74.0303 33.3078C73.6122 32.293 72.9041 31.4257 71.9957 30.8155C71.0872 30.2053 70.0192 29.8796 68.9266 29.8796C67.4615 29.8796 66.0564 30.4647 65.0205 31.5061C63.9845 32.5476 63.4025 33.9601 63.4025 35.433Z" stroke="#282E3D" stroke-width="1.24805" stroke-miterlimit="10"/>
<path d="M69.3686 33.2005C69.6373 33.2143 69.8952 33.3114 70.1069 33.4785C70.3185 33.6455 70.4736 33.8743 70.5508 34.1334C70.5944 34.2865 70.6277 34.4423 70.6502 34.5999L69.5454 34.6777C69.5398 34.5949 69.5179 34.5141 69.4808 34.44C69.4437 34.3659 69.3922 34.3 69.3294 34.2462C69.2666 34.1923 69.1938 34.1517 69.1151 34.1266C69.0365 34.1015 68.9536 34.0925 68.8714 34.1001C68.6394 34.1001 68.4074 34.2001 68.4074 34.4222C68.4074 34.6444 68.5731 34.711 69.225 34.9776L69.7222 35.1664C70.0246 35.2231 70.298 35.3837 70.4955 35.6208C70.693 35.8579 70.8024 36.1566 70.8049 36.4659C70.8049 37.2433 70.2083 37.6987 69.4128 37.7876V38.454H68.5952V37.7876C68.3995 37.7946 68.2045 37.7598 68.0232 37.6853C67.8419 37.6108 67.6784 37.4984 67.5436 37.3556C67.4088 37.2127 67.3058 37.0427 67.2414 36.8567C67.177 36.6708 67.1526 36.4732 67.17 36.2771L68.2748 36.2104C68.2748 36.6547 68.5068 36.8879 68.9709 36.8879C69.236 36.8879 69.5343 36.8213 69.5343 36.5103C69.5343 36.1993 69.3355 36.1993 69.0261 36.066L68.5952 35.8772C67.9655 35.6773 67.3578 35.333 67.3578 34.5444C67.3619 34.2061 67.4908 33.8814 67.7194 33.6331C67.948 33.3849 68.26 33.2307 68.5952 33.2005V32.5896H69.3686V33.2005Z" fill="white"/>
</g>
<defs>
<radialGradient id="paint0_radial_104_77" cx="0" cy="0" r="1" gradientUnits="userSpaceOnUse" gradientTransform="translate(93.228 60.5457) rotate(90) scale(16.4899 15.7614)">
<stop offset="0.15" stop-color="#0A0100"/>
<stop offset="0.36" stop-color="#070100" stop-opacity="0.66"/>
<stop offset="1" stop-opacity="0"/>
</radialGradient>
<clipPath id="clip0_104_77">
<rect width="162" height="57" fill="white" transform="translate(63 6)"/>
</clipPath>
</defs>
</svg>
