<svg width="32" height="32" viewBox="0 0 32 32" fill="none" xmlns="http://www.w3.org/2000/svg">
<g clip-path="url(#clip0_62_426)">
<path d="M10.1202 8.62109L20.426 16.0787L30.7318 8.62109H10.1202Z" fill="#E2E5EB"/>
<path d="M20.9875 18.0372C20.82 18.1584 20.623 18.219 20.426 18.219C20.229 18.219 20.032 18.1584 19.8645 18.0372L8.85206 10.0681V11.0561H4.42613C3.89714 11.0561 3.46826 11.4849 3.46826 12.0139C3.46826 12.5429 3.89714 12.9718 4.42613 12.9718H8.85206V19.028H4.42613C3.89714 19.028 3.46826 19.4569 3.46826 19.9859C3.46826 20.5149 3.89714 20.9438 4.42613 20.9438H8.85206V22.421C8.85206 22.95 9.28094 23.3788 9.80994 23.3788H31.0421C31.5711 23.3788 32 22.95 32 22.421V10.0682L20.9875 18.0372Z" fill="#E2E5EB"/>
<path d="M6.34168 15.0422H0.957873C0.428874 15.0422 0 15.4711 0 16.0001C0 16.5291 0.428874 16.958 0.957873 16.958H6.34168C6.87067 16.958 7.29955 16.5291 7.29955 16.0001C7.29955 15.4711 6.87067 15.0422 6.34168 15.0422Z" fill="#E2E5EB"/>
</g>
<defs>
<clipPath id="clip0_62_426">
<rect width="32" height="32" fill="white"/>
</clipPath>
</defs>
</svg>
