<svg width="22" height="22" viewBox="0 0 22 22" fill="none" xmlns="http://www.w3.org/2000/svg">
<path d="M21.4332 9.31255L16.7615 13.8666L17.8647 20.2985C17.9127 20.5798 17.7972 20.864 17.5662 21.032C17.4357 21.1273 17.2805 21.1753 17.1252 21.1753C17.006 21.1753 16.886 21.1468 16.7765 21.089L11 18.0523L5.22425 21.0883C4.97225 21.2218 4.6655 21.2001 4.4345 21.0313C4.2035 20.8633 4.088 20.579 4.136 20.2978L5.23925 13.8658L0.566746 9.31255C0.362746 9.11305 0.288496 8.81455 0.376996 8.5438C0.465496 8.27305 0.700246 8.0743 0.982996 8.03305L7.43975 7.09555L10.3272 1.24405C10.58 0.731801 11.42 0.731801 11.6727 1.24405L14.5602 7.09555L21.017 8.03305C21.2997 8.0743 21.5345 8.2723 21.623 8.5438C21.7115 8.8153 21.6372 9.1123 21.4332 9.31255Z" fill="#EBD23B"/>
</svg>
