<svg width="289" height="70" viewBox="0 0 289 70" fill="none" xmlns="http://www.w3.org/2000/svg">
<path d="M102.004 27.2395H104.939V29.2119C105.938 27.7373 107.624 27 110.006 27C112.681 27 114.437 27.9486 115.282 29.8506C116.244 27.9486 118.111 27 120.883 27C123.006 27 124.553 27.5541 125.532 28.6672C126.512 29.7755 127 31.5459 127 33.9692V43H124.065V33.9692C124.065 32.5181 123.749 31.452 123.131 30.7898C122.514 30.123 121.543 29.7848 120.224 29.7848C118.71 29.7848 117.623 30.2075 116.959 31.0434C116.3 31.884 115.97 33.2365 115.97 35.1197V43H113.035V33.9691C113.035 32.518 112.719 31.4519 112.101 30.7897C111.484 30.1229 110.513 29.7847 109.189 29.7847C107.675 29.7847 106.588 30.2074 105.924 31.0433C105.265 31.8838 104.935 33.2364 104.935 35.1195V42.9998H102V27.2393L102.004 27.2395Z" fill="#333333"/>
<path d="M132 51V27.2486H134.957V29.4999C136.062 27.8317 138.018 27 140.812 27C143.334 27 145.159 27.6548 146.301 28.9597C147.434 30.2646 148 32.3677 148 35.2644C148 38.1466 147.434 40.2404 146.301 41.5596C145.159 42.8742 143.334 43.5337 140.812 43.5337C138.018 43.5337 136.062 42.6972 134.957 41.0338V50.9952H132V51ZM136.212 39.4182C137.007 40.2738 138.285 40.6946 140.03 40.6946C141.785 40.6946 143.063 40.2692 143.858 39.4182C144.654 38.5627 145.047 37.1813 145.047 35.2646C145.047 33.3765 144.654 31.9951 143.858 31.13C143.063 30.2649 141.785 29.8347 140.03 29.8347C138.285 29.8347 137.007 30.2696 136.212 31.13C135.416 31.9951 135.014 33.3718 135.014 35.2646C135.014 37.1813 135.416 38.5675 136.212 39.4182Z" fill="#333333"/>
<path d="M151 38.0506H153.833C154.091 38.8878 154.575 39.4937 155.289 39.8684C156.012 40.2478 157.033 40.4373 158.348 40.4373C160.942 40.4373 162.23 39.7991 162.23 38.527C162.23 37.9487 161.886 37.4956 161.181 37.1532C160.485 36.8154 159.356 36.5241 157.801 36.2882C155.402 35.9689 153.716 35.4463 152.74 34.7201C151.759 33.994 151.267 32.9254 151.267 31.51C151.267 29.9928 151.777 28.8642 152.812 28.1194C153.842 27.37 155.465 27 157.679 27C159.902 27 161.57 27.3932 162.7 28.1796C163.829 28.9659 164.525 30.224 164.801 31.9586H161.977C161.719 31.1214 161.254 30.5155 160.576 30.1362C159.898 29.7615 158.908 29.5718 157.629 29.5718C155.239 29.5718 154.041 30.1778 154.041 31.3897C154.041 31.9494 154.385 32.3935 155.063 32.7173C155.74 33.0457 156.816 33.3325 158.298 33.5684C160.802 33.9661 162.551 34.5028 163.527 35.1781C164.516 35.8536 165 36.8896 165 38.2819C165 41.4275 162.759 43 158.271 43C156.03 43 154.331 42.6023 153.165 41.8021C151.994 41.0204 151.271 39.7621 151 38.0506Z" fill="#333333"/>
<path d="M172.834 26.5983H177.808V29.4973H172.834V37.197C172.834 38.2092 173.084 38.9424 173.571 39.4068C174.066 39.8712 174.872 40.101 175.967 40.101H178V43H175.913C173.728 43 172.156 42.5699 171.189 41.7094C170.212 40.8442 169.73 39.4557 169.73 37.5441V29.4972H167V26.5981H169.73V23H172.834L172.834 26.5983Z" fill="#333333"/>
<path d="M186.386 43C184.173 43 182.55 42.6297 181.525 41.8942C180.5 41.1585 180 39.974 180 38.3407C180 36.6472 180.569 35.4396 181.708 34.7132C182.837 33.9868 184.683 33.6211 187.213 33.6211H192.866C192.866 32.2099 192.49 31.1781 191.718 30.535C190.955 29.8826 189.728 29.5633 188.045 29.5633C186.703 29.5633 185.668 29.767 184.946 30.1741C184.223 30.5859 183.728 31.2336 183.475 32.1313H180.371C180.673 30.3453 181.436 29.0404 182.673 28.2215C183.911 27.4026 185.748 27 188.173 27C190.896 27 192.886 27.5229 194.134 28.5685C195.381 29.6142 196 31.2799 196 33.5703V42.7686H192.871V40.7699C191.614 42.255 189.45 43 186.386 43ZM183.129 38.2203C183.129 38.9976 183.446 39.5575 184.104 39.9045C184.753 40.2561 185.758 40.4274 187.119 40.4274C188.926 40.4274 190.287 40.122 191.198 39.502C192.099 38.882 192.659 37.9011 192.871 36.5454V35.8327H188.02C184.753 35.8327 183.129 36.6286 183.129 38.2203Z" fill="#333333"/>
<path d="M204.304 26.5983H208.826V29.4973H204.304V37.197C204.304 38.2092 204.531 38.9424 204.973 39.4068C205.424 39.8712 206.156 40.101 207.152 40.101H209V43H207.103C205.116 43 203.688 42.5699 202.808 41.7094C201.92 40.8442 201.482 39.4557 201.482 37.5441V29.4972H199V26.5981H201.482V23H204.304V26.5983Z" fill="#333333"/>
<path d="M211 38.0506H214.036C214.312 38.8878 214.83 39.4937 215.595 39.8684C216.369 40.2478 217.464 40.4373 218.873 40.4373C221.652 40.4373 223.032 39.7991 223.032 38.527C223.032 37.9487 222.664 37.4956 221.909 37.1532C221.163 36.8154 219.953 36.5241 218.287 36.2882C215.716 35.9689 213.91 35.4463 212.864 34.7201C211.813 33.994 211.286 32.9254 211.286 31.51C211.286 29.9928 211.833 28.8642 212.942 28.1194C214.045 27.37 215.784 27 218.156 27C220.538 27 222.325 27.3932 223.535 28.1796C224.746 28.9659 225.491 30.224 225.787 31.9586H222.761C222.485 31.1214 221.986 30.5155 221.26 30.1362C220.534 29.7615 219.473 29.5718 218.103 29.5718C215.541 29.5718 214.258 30.1778 214.258 31.3897C214.258 31.9494 214.626 32.3935 215.353 32.7173C216.079 33.0457 217.231 33.3325 218.82 33.5684C221.502 33.9661 223.376 34.5028 224.422 35.1781C225.482 35.8536 226 36.8896 226 38.2819C226 41.4275 223.599 43 218.791 43C216.389 43 214.568 42.6023 213.319 41.8021C212.07 41.0204 211.295 39.7621 211 38.0506Z" fill="#333333"/>
<path d="M86.345 40.1468L65.8559 51.8373C65.0191 52.3159 64 51.6811 64 50.6849V27.3132C64 26.317 65.019 25.687 65.8559 26.1607C66.2578 26.3901 66.5103 26.8345 66.5103 27.3132V40.7863C66.5103 41.7824 67.534 42.4174 68.3709 41.9339L80.282 35.0777C80.6559 34.8628 81.1141 34.8628 81.4879 35.0728L86.3403 37.8368C87.2191 38.3447 87.2191 39.6535 86.345 40.1468Z" fill="url(#paint0_linear_17_378)"/>
<path d="M85.3644 26.8687C86.2119 27.378 86.2119 28.622 85.3644 29.1312L78.8745 33.0394L78.7685 33.1031L70.9499 37.8144C70.0881 38.3336 69 37.7018 69 36.6833V19.3169C69 18.2982 70.0881 17.6664 70.9499 18.1856L85.3644 26.8687Z" fill="url(#paint1_linear_17_378)"/>
<defs>
<linearGradient id="paint0_linear_17_378" x1="27.6134" y1="82.9117" x2="106.326" y2="-2.35432" gradientUnits="userSpaceOnUse">
<stop stop-color="#D8EC1D"/>
<stop offset="0.201" stop-color="#A2E02B"/>
<stop offset="0.481" stop-color="#5DD03D"/>
<stop offset="0.716" stop-color="#2BC44B"/>
<stop offset="0.893" stop-color="#0CBD53"/>
<stop offset="0.991" stop-color="#00BA56"/>
</linearGradient>
<linearGradient id="paint1_linear_17_378" x1="42.1056" y1="61.7783" x2="102.799" y2="-1.39544" gradientUnits="userSpaceOnUse">
<stop stop-color="#D8EC1D"/>
<stop offset="0.201" stop-color="#A2E02B"/>
<stop offset="0.481" stop-color="#5DD03D"/>
<stop offset="0.716" stop-color="#2BC44B"/>
<stop offset="0.893" stop-color="#0CBD53"/>
<stop offset="0.991" stop-color="#00BA56"/>
</linearGradient>
</defs>
</svg>
