<svg width="289" height="70" viewBox="0 0 289 70" fill="none" xmlns="http://www.w3.org/2000/svg">
<g id="logo-white 2">
<g id="Group">
<g id="Group_2">
<g id="Group_3">
<path id="Vector" d="M78.9349 37.1972C77.0501 37.1972 75.1653 36.8552 73.2805 36.3384C71.3957 35.8216 69.6857 35.1376 68.3101 34.1116L65.2321 40.7996C66.7749 41.8256 68.8269 42.6844 71.2285 43.3684C73.7973 44.0524 76.3661 44.3944 78.9349 44.3944C82.1877 44.3944 84.7565 43.8776 86.9833 43.0264C89.0429 42.0004 90.7529 40.7996 91.7789 39.2568C92.8049 37.714 93.3217 36.004 93.3217 34.1192C93.3217 31.8924 92.6377 30.3496 91.4369 29.1488C90.2361 27.7808 88.8681 26.7472 87.1505 26.238C85.4405 25.554 83.3809 25.0372 80.9869 24.528C78.7601 24.0112 77.2173 23.502 76.1913 23.16C75.1653 22.6432 74.8233 21.792 74.8233 20.9332C74.8233 20.0744 75.1653 19.3904 76.0241 18.8736C76.8829 18.3568 78.0761 18.0148 79.9609 18.0148C82.8717 18.0148 85.7825 18.6988 88.8681 20.4164L91.6117 13.736C90.0689 12.8772 88.1841 12.1932 86.1321 11.684C84.0801 11.1672 81.8533 11 79.7937 11C76.7081 11 74.1393 11.5168 71.9125 12.368C69.8529 13.2268 68.1429 14.5948 67.1169 16.1376C66.0909 17.6804 65.5741 19.5652 65.5741 21.45C65.5741 23.6768 66.2581 25.0448 67.4589 26.4204C68.6597 27.7884 70.0277 28.6472 71.7377 29.3312C73.4477 30.0152 75.5073 30.532 77.9013 31.0412C80.1281 31.3832 84.2397 32.242 84.2397 34.636C84.0725 36.346 82.5297 37.1972 78.9349 37.1972Z" fill="#710BFF"/>
</g>
<g id="Group_4">
<path id="Vector_2" d="M78.418 51.4624C71.7832 51.4624 64.9356 50.2236 61.9032 48.3996L59 54.4948C63.8868 56.9876 71.4336 58.3176 78.418 58.3176C85.4024 58.3176 92.9568 57.0636 97.6992 54.4644L94.9328 48.4072C91.8928 50.2236 85.0528 51.4624 78.418 51.4624Z" fill="#710BFF"/>
</g>
<g id="Group_5">
<path id="Vector_3" d="M123.874 23.0688C122.787 22.704 121.518 22.3468 120.074 21.982C118.804 21.6172 117.718 21.4424 117.178 21.0776C116.638 20.7128 116.274 20.3556 116.274 19.8084C116.274 19.2688 116.456 18.904 116.996 18.5392C117.535 18.1744 118.447 17.9996 119.534 17.9996C121.343 17.9996 123.159 18.5392 125.15 19.626L126.777 15.4612C125.69 14.9216 124.603 14.5568 123.334 14.192C121.882 14.0096 120.621 13.8272 119.352 13.8272C117.36 13.8272 115.726 14.192 114.465 14.7316C113.013 15.2712 112.109 16.1832 111.387 17.0876C110.665 17.992 110.3 19.0788 110.3 20.348C110.3 21.6172 110.665 22.704 111.387 23.6084C112.109 24.5128 112.838 25.06 113.925 25.4172C115.012 25.782 116.281 26.1392 117.725 26.504C119.177 26.8688 120.264 27.0436 120.803 27.4084C121.343 27.5908 121.708 28.1304 121.708 28.6776C121.708 29.7644 120.621 30.304 118.447 30.304C117.36 30.304 116.274 30.1216 115.004 29.7644C113.918 29.3996 112.831 28.86 111.926 28.3128L110.118 32.4776C111.204 33.1996 112.474 33.7468 113.918 34.104C115.544 34.4688 117.178 34.6436 118.447 34.6436C120.438 34.6436 122.072 34.2788 123.334 33.7392C124.786 33.1996 125.69 32.2876 126.412 31.3832C127.134 30.4788 127.499 29.392 127.499 28.1228C127.499 26.8536 127.134 25.7668 126.412 24.8624C125.69 23.9732 124.96 23.4336 123.874 23.0688Z" fill="#710BFF"/>
</g>
<g id="Group_6">
<path id="Vector_4" d="M137.462 26.1468H146.332V21.982H137.462V18.5392H147.601V14.192H131.846V34.294H147.966V29.9468V29.772H137.462V26.1468Z" fill="#710BFF"/>
</g>
<g id="Group_7">
<path id="Vector_5" d="M158.286 14.192H152.67V34.294H167.885V29.772H158.286V14.192Z" fill="#710BFF"/>
</g>
<g id="Group_8">
<path id="Vector_6" d="M177.302 14.192H171.685V34.294H186.9V29.772H177.302V14.192Z" fill="#710BFF"/>
</g>
<g id="Group_9">
<path id="Vector_7" d="M206.638 29.9468V29.772H196.134V26.1468H205.011V21.982H196.134V18.5392H206.273V14.192H190.518V34.294H206.638V29.9468Z" fill="#710BFF"/>
</g>
<g id="Group_10">
<g id="Group_11">
<path id="Vector_8" d="M229.635 34.294L225.288 27.9556C226.557 27.416 227.462 26.504 228.184 25.4172C228.906 24.3304 229.27 23.0612 229.27 21.6172C229.27 19.9908 228.906 18.7216 228.184 17.6348C227.462 16.548 226.375 15.6436 225.106 15.0964C223.836 14.5568 222.21 14.192 220.394 14.192H211.16V34.294H216.776V28.86H219.854L223.479 34.294H229.635ZM219.862 24.5204H216.784V18.7216H219.862C221.131 18.7216 222.035 18.904 222.575 19.4436C223.297 19.9832 223.479 20.7128 223.479 21.6172C223.479 22.5216 223.114 23.2436 222.575 23.7908C221.853 24.338 220.948 24.5204 219.862 24.5204Z" fill="#710BFF"/>
</g>
</g>
<g id="Group_12">
<path id="Vector_9" d="M112.284 49.874H118.265V48.4224H112.284V44.7972H118.987V43.3532H110.657V55.1256H119.169V53.674H112.284V49.874Z" fill="#710BFF"/>
</g>
<g id="Group_13">
<path id="Vector_10" d="M141.445 43.5356H139.636L136.376 48.0576L133.115 43.5356H131.124L135.289 49.3268L130.942 55.308H132.933L136.376 50.4136L139.993 55.308H141.802L137.28 49.1444L141.445 43.5356Z" fill="#710BFF"/>
</g>
<g id="Group_14">
<g id="Group_15">
<path id="Vector_11" d="M158.826 43.7104H154.296V55.4828H155.923V51.8576H158.818C160.445 51.8576 161.532 51.4928 162.444 50.7708C163.348 50.0488 163.713 48.962 163.713 47.6928C163.713 46.4236 163.348 45.3368 162.444 44.6148C161.729 43.8928 160.46 43.5356 158.826 43.7104ZM161.364 49.5092C160.825 49.874 159.913 50.2312 159.008 50.0488H156.113V44.7972H159.008C159.913 44.7972 160.817 44.9796 161.364 45.5192C161.912 46.0588 162.269 46.606 162.269 47.5104C162.269 48.4224 161.904 48.9696 161.364 49.5092Z" fill="#710BFF"/>
</g>
</g>
<g id="Group_16">
<path id="Vector_12" d="M178.571 49.874H184.544V48.4224H178.571V44.7972H185.266V43.3532H176.937V55.1256H185.449V53.674H178.571V49.874Z" fill="#710BFF"/>
</g>
<g id="Group_17">
<g id="Group_18">
<path id="Vector_13" d="M207.907 50.0488C208.446 49.3268 208.629 48.5972 208.629 47.6928C208.629 46.4236 208.264 45.3368 207.36 44.6148C206.455 43.8928 205.186 43.528 203.734 43.528H199.205V55.3004H200.831V51.6752H203.727C203.909 51.6752 204.092 51.6752 204.449 51.6752L206.987 55.3004L208.614 55.4828L205.9 51.5004C206.82 51.1356 207.542 50.7784 207.907 50.0488ZM206.098 49.5092C205.376 50.0488 204.472 50.2312 203.742 50.0488H200.846V44.7972H203.742C204.646 44.7972 205.551 44.9796 206.098 45.5192C206.645 46.0588 207.002 46.606 207.002 47.5104C207.002 48.4224 206.638 48.9696 206.098 49.5092Z" fill="#710BFF"/>
</g>
</g>
<g id="Group_19">
<path id="Vector_14" d="M220.219 43.5356V44.9796H224.201L224.384 55.308H226.018V44.9796H230V43.5356H220.219Z" fill="#710BFF"/>
</g>
</g>
</g>
</g>
</svg>
